<?xml version="1.0" encoding="utf-8"?>
<!-- Generator: Adobe Illustrator 16.0.0, SVG Export Plug-In . SVG Version: 6.00 Build 0)  -->
<!DOCTYPE svg PUBLIC "-//W3C//DTD SVG 1.1//EN" "http://www.w3.org/Graphics/SVG/1.1/DTD/svg11.dtd">
<svg version="1.1" id="all" xmlns="http://www.w3.org/2000/svg" xmlns:xlink="http://www.w3.org/1999/xlink" x="0px" y="0px"
	 width="200px" height="200px" viewBox="0 0 200 200" enable-background="new 0 0 200 200" xml:space="preserve">
<g>
	<path opacity="0.3" fill="#FFFFFF" d="M98.11,48.24c-28.59,0-51.76,23.17-51.76,51.76s23.17,51.76,51.76,51.76
		s51.76-23.17,51.76-51.76S126.7,48.24,98.11,48.24z M98.11,146.84c-25.92,0-46.92-21.01-46.92-46.92S72.19,53,98.11,53
		s46.92,21.01,46.92,46.92S124.03,146.84,98.11,146.84z"/>
	<g>
		<path fill="#FFFFFF" d="M96.929,101.541h-2.342v3.194h2.778c0.973,0,2.064-0.417,2.064-1.646
			C99.43,101.76,97.941,101.541,96.929,101.541z"/>
		<path fill="#FFFFFF" d="M98.775,97.394c0-1.172-1.112-1.47-2.084-1.47h-2.104v2.996h2.243
			C97.783,98.92,98.775,98.524,98.775,97.394z"/>
		<polygon fill="#FFFFFF" points="81.404,102.354 84.956,102.354 84.956,96.679 84.916,96.679 		"/>
		<path fill="#FFFFFF" d="M98.11,57.847c-23.281,0-42.153,18.873-42.153,42.153s18.873,42.153,42.153,42.153
			S140.263,123.28,140.263,100S121.391,57.847,98.11,57.847z M72.724,107.593c-1.329,0-2.58-0.516-3.273-1.666H69.41v1.429h-2.262
			V92.352h2.382v6.688h0.059c0.497-0.616,1.449-1.448,3.235-1.448c2.719,0,4.604,2.184,4.604,5.001
			C77.428,105.409,75.662,107.593,72.724,107.593z M89.382,104.496h-2.044v2.859h-2.382v-2.859h-5.973v-2.36l5.655-8.831h2.699
			v9.049h2.044V104.496z M97.247,107.355h-5.756V93.305h5.24c2.461,0,5.14,0.516,5.14,3.571c0,1.569-0.973,2.641-2.421,3.097v0.04
			c1.845,0.237,3.076,1.607,3.076,3.434C102.525,106.383,99.747,107.355,97.247,107.355z M110.907,101.361v5.994h-3.096v-5.994
			l-5.278-8.057h3.85l2.977,5.259l3.156-5.259h3.671L110.907,101.361z M123.159,107.712c-3.91,0-5.935-2.461-5.935-5.774v-8.633
			h3.096v8.515c0,1.726,1.191,3.036,2.838,3.036c1.627,0,2.818-1.311,2.818-3.036v-8.515h3.095v8.633
			C129.072,105.251,127.048,107.712,123.159,107.712z"/>
		<path fill="#FFFFFF" d="M72.249,99.734c-1.747,0-2.798,1.369-2.798,2.858c0,1.488,1.051,2.857,2.798,2.857
			c1.746,0,2.798-1.369,2.798-2.857C75.046,101.104,73.995,99.734,72.249,99.734z"/>
	</g>
</g>
</svg>
