<?xml version="1.0" encoding="utf-8"?>
<!-- Generator: Adobe Illustrator 16.0.0, SVG Export Plug-In . SVG Version: 6.00 Build 0)  -->
<!DOCTYPE svg PUBLIC "-//W3C//DTD SVG 1.1//EN" "http://www.w3.org/Graphics/SVG/1.1/DTD/svg11.dtd">
<svg version="1.1" id="all" xmlns="http://www.w3.org/2000/svg" xmlns:xlink="http://www.w3.org/1999/xlink" x="0px" y="0px"
	 width="200px" height="200px" viewBox="0 0 200 200" enable-background="new 0 0 200 200" xml:space="preserve">
<g>
	<path fill="#FFFFFF" d="M64.613,102.589c6.979-1.37,5.948-9.265,5.948-9.265c0-9.482-12.005-10.056-12.005-10.056H30.785v41.669
		h27.771c0,0,13.374-0.758,13.374-12.02C71.929,112.918,71.947,104.878,64.613,102.589z M44.08,91.118h8.534
		c4.365,0.462,4.344,4.426,4.344,4.426c0,4.34-4.423,4.415-4.423,4.415H44.08V91.118z M52.309,116.655h-8.552v-10.044h8.54
		c5.269,0.668,5.269,5.014,5.269,5.014C57.565,116.655,52.309,116.655,52.309,116.655z"/>
	<path fill="#FFFFFF" d="M157.654,83.249v25.707h-0.022c-0.022,0.253-0.664,7.136-7.698,7.136l-0.606,0.029
		c-7.165,0-7.702-7.165-7.702-7.165V86.01v-2.741h-13.547v26.437c0.13,2.226,1.5,14.642,16.139,15.407h5.11l0.606-0.029h5.104
		c16.083-0.836,16.161-15.772,16.161-15.772V87.434c0,0,0,0,0-1.521c0-0.023,0.013-0.043,0.016-0.072v-2.591H157.654z"/>
	<path fill="#FFFFFF" d="M107.592,83.269L98.141,98.31v0.017l-0.005-0.01l-0.026,0.039l0.005-0.049L89.96,85.329
		c-0.001-0.01,0.002-0.012,0-0.02l-1.282-2.041H73.694l1.493,2.141c0.017,0.024,0.045,0.044,0.058,0.071l15.625,22.408h0.001V124.5
		h7.469h7.008v-16.611l17.177-24.62H107.592z"/>
</g>
</svg>
