<?xml version="1.0" encoding="utf-8"?>
<!-- Generator: Adobe Illustrator 16.0.0, SVG Export Plug-In . SVG Version: 6.00 Build 0)  -->
<!DOCTYPE svg PUBLIC "-//W3C//DTD SVG 1.1//EN" "http://www.w3.org/Graphics/SVG/1.1/DTD/svg11.dtd">
<svg version="1.1" id="all" xmlns="http://www.w3.org/2000/svg" xmlns:xlink="http://www.w3.org/1999/xlink" x="0px" y="0px"
	 width="200px" height="200px" viewBox="0 0 200 200" enable-background="new 0 0 200 200" xml:space="preserve">
<path id="White_2_" fill="#FFFFFF" d="M140.587,58.262H59.413c-2.782,0-5.036,2.254-5.036,5.035v81.176
	c0,2.78,2.254,5.035,5.036,5.035h43.702v-35.335H91.223v-13.771h11.891V90.246c0-11.785,7.198-18.203,17.712-18.203
	c5.036,0,9.364,0.375,10.626,0.542v12.317l-7.292,0.003c-5.718,0-6.825,2.718-6.825,6.704v8.793h13.637l-1.775,13.771h-11.861
	v35.335h23.252c2.781,0,5.036-2.255,5.036-5.035V63.297C145.624,60.516,143.369,58.262,140.587,58.262z"/>
</svg>
