<?xml version="1.0" encoding="utf-8"?>
<!-- Generator: Adobe Illustrator 16.0.0, SVG Export Plug-In . SVG Version: 6.00 Build 0)  -->
<!DOCTYPE svg PUBLIC "-//W3C//DTD SVG 1.1//EN" "http://www.w3.org/Graphics/SVG/1.1/DTD/svg11.dtd">
<svg version="1.1" id="all" xmlns="http://www.w3.org/2000/svg" xmlns:xlink="http://www.w3.org/1999/xlink" x="0px" y="0px"
	 width="200px" height="200px" viewBox="0 0 200 200" enable-background="new 0 0 200 200" xml:space="preserve">
<g>
	<path opacity="0.3" fill="#FFFFFF" d="M100,48.24c-28.59,0-51.76,23.17-51.76,51.76s23.17,51.76,51.76,51.76
		s51.76-23.17,51.76-51.76S128.59,48.24,100,48.24z M100,146.84c-25.92,0-46.92-21.01-46.92-46.92S74.08,53,100,53
		s46.92,21.01,46.92,46.92S125.92,146.84,100,146.84z"/>
	<g>
		<path fill="#FFFFFF" d="M100,58.06c-23.16,0-41.94,18.78-41.94,41.94s18.78,41.94,41.94,41.94s41.94-18.78,41.94-41.94
			S123.16,58.06,100,58.06z M110.88,106.25c0,4.77-3.34,7.3-7.89,8.03v5.109h-4.73v-4.979c-3.73-0.351-7.21-1.8-9.14-4.04l2.83-3.82
			c1.59,1.63,4.81,2.92,7.86,2.92c2.53,0,4.76-0.989,4.76-3.52v-2.021L90.23,98.48V92.38c0-4.64,3.27-7.04,8.07-7.68v-4.09h4.77v4
			c3.22,0.35,5.67,1.5,7.68,2.88l-2.36,4.38c-1.41-1.03-4.2-2.32-6.95-2.32c-2.79,0-4.89,0.851-4.89,3.17v2.62l14.33,5.41V106.25z"
			/>
	</g>
</g>
</svg>
