<?xml version="1.0" encoding="utf-8"?>
<!-- Generator: Adobe Illustrator 16.0.0, SVG Export Plug-In . SVG Version: 6.00 Build 0)  -->
<!DOCTYPE svg PUBLIC "-//W3C//DTD SVG 1.1//EN" "http://www.w3.org/Graphics/SVG/1.1/DTD/svg11.dtd">
<svg version="1.1" id="all" xmlns="http://www.w3.org/2000/svg" xmlns:xlink="http://www.w3.org/1999/xlink" x="0px" y="0px"
	 width="200px" height="200px" viewBox="0 0 200 200" enable-background="new 0 0 200 200" xml:space="preserve">
<g>
	<path opacity="0.3" fill="#FFFFFF" d="M99.999,52.122c-28.586,0-51.762,23.175-51.762,51.763c0,28.589,23.176,51.763,51.762,51.763
		c28.59,0,51.764-23.174,51.764-51.763C151.763,75.297,128.589,52.122,99.999,52.122z M99.999,150.729
		c-25.914,0-46.921-21.009-46.921-46.923c0-25.915,21.007-46.924,46.921-46.924c25.917,0,46.924,21.009,46.924,46.924
		C146.923,129.72,125.916,150.729,99.999,150.729z"/>
	<g>
		<path fill="#FFFFFF" d="M100,61.94c-23.163,0-41.943,18.781-41.943,41.944s18.78,41.944,41.943,41.944
			s41.943-18.781,41.943-41.944S123.163,61.94,100,61.94z M100.009,88.101c4.326,0,8.274,2.271,11.299,6.041H88.701
			C91.735,90.372,95.684,88.101,100.009,88.101z M86.119,98.126H113.9c0.857,1.66,1.573,3.487,2.129,5.429H83.99
			C84.546,101.613,85.261,99.786,86.119,98.126z M109.961,113.375c-0.047-1.556-1.254-2.8-2.733-2.8s-2.695,1.244-2.742,2.8h-21.75
			c0.038-1.934,0.236-3.808,0.575-5.607h33.396c0.339,1.8,0.528,3.674,0.575,5.607H109.961z"/>
	</g>
</g>
</svg>
